<svg xmlns="http://www.w3.org/2000/svg" viewBox="0 0 64 64">
  <defs>
    <linearGradient id="leaf" x1="0" y1="0" x2="1" y2="1">
      <stop offset="0%" stop-color="#1d6b3c" />
      <stop offset="100%" stop-color="#6dbb75" />
    </linearGradient>
    <linearGradient id="gold" x1="0" y1="0" x2="1" y2="0">
      <stop offset="0%" stop-color="#9d6d3a" />
      <stop offset="100%" stop-color="#c9985a" />
    </linearGradient>
  </defs>

  <rect width="64" height="64" rx="16" fill="#f6f1e4"/>

  <path d="M20 43 Q32 49 44 43" fill="none" stroke="url(#gold)" stroke-width="3.5" stroke-linecap="round"/>

  <path d="M24 39 C22 29 24 21 31 14 C34 20 33 29 28 37 C27 38.5 26 39 24 39Z" fill="url(#leaf)"/>
  <path d="M40 39 C42 29 40 21 33 14 C30 20 31 29 36 37 C37 38.5 38 39 40 39Z" fill="url(#leaf)"/>

  <path d="M27.5 32 H36.5" stroke="#295c37" stroke-width="3" stroke-linecap="round"/>
</svg>